<svg xmlns="http://www.w3.org/2000/svg" viewBox="0 0 48 48"><g fill='#FFFFFF'><path fill='#FF00A7' d="M39 35.6c2.2-3 3.6-6.6 3.8-10.6H32c.4 4.6 3.2 8.6 7 10.6zM39.2 12.4c-4 2-6.8 6-7.2 10.6h11c-.2-4-1.6-7.6-3.8-10.6zM9 12.4C6.6 15.4 5.2 19 5 23h10.8c-.2-4.6-3-8.6-6.8-10.6zM8.8 35.6c4-2 6.8-6 7.2-10.6H5c.2 4 1.6 7.6 3.8 10.6z"></path><path d="M37.8 10.8C34.4 7.4 30 5.4 25 5v18h5c.4-5.2 3.4-9.6 7.8-12.2zM27 21V7.3c2.8.5 5.4 1.7 7.6 3.3-3.3 2.7-5.5 6.3-6.3 10.4H27zM18 23h5V5c-5 .4-9.4 2.4-12.8 5.8 4.4 2.6 7.4 7 7.8 12.2zm3-15.7V21h-1.2c-.8-4.1-3-7.7-6.3-10.4 2.1-1.7 4.7-2.8 7.5-3.3zM10.2 37.2C13.4 40.6 18 42.8 23 43V25h-5c-.4 5.2-3.4 9.6-7.8 12.2zM21 27v13.8c-2.8-.5-5.4-1.6-7.6-3.4 3.4-2.7 5.6-6.3 6.4-10.4H21zM30 25h-5v18c5-.2 9.4-2.4 12.8-5.8-4.4-2.6-7.4-7-7.8-12.2zm-3 15.8V27h1.2c.8 4.1 3 7.7 6.3 10.4-2.2 1.8-4.8 2.9-7.5 3.4z"></path></g></svg>