<svg id="Layer_1" data-name="Layer 1" xmlns="http://www.w3.org/2000/svg" viewBox="0 0 425.03 75"><defs><style>.cls-1{fill:#231f20;}</style></defs><path d="M37.73,32.9a2.89,2.89,0,0,0,.39-.24,6.17,6.17,0,0,0,1-1,2.22,2.22,0,0,0-.66-3.28,8,8,0,0,0-1.12-.59,12.86,12.86,0,0,0-5-1,14.28,14.28,0,0,0-5.95,1c-.23.1-.28.21-.2.44.15.41.28.82.41,1.23a19.74,19.74,0,0,1,.82,8.15c-.08.76-.2,1.51-.31,2.28l.17.05a21.77,21.77,0,0,0,6.14,0,11.79,11.79,0,0,0,5.73-2.44,2.57,2.57,0,0,0,1.1-1.87A2.32,2.32,0,0,0,39,33.55a12.12,12.12,0,0,0-1.3-.65M26.34,58.74l1.14.35A22.25,22.25,0,0,0,33,60.26,16.18,16.18,0,0,0,42.77,58a5.42,5.42,0,0,0,2.07-2,2.15,2.15,0,0,0-.16-2.38,3.27,3.27,0,0,0-1.57-1.09l-.31-.13.33-.19a8.13,8.13,0,0,0,1-.64,1.6,1.6,0,0,0,.58-1.65,4.38,4.38,0,0,0-2.35-3,17.07,17.07,0,0,0-8-2.07,21.26,21.26,0,0,0-6.86,1c-.47.15-.5.21-.42.69.22,1.38.44,2.75.64,4.13,0,.19.1.22.28.2s.64-.07,1-.09a13.53,13.53,0,0,0,3.33-.64,5.28,5.28,0,0,0,2.77-2,8.44,8.44,0,0,0,.53-1.23,1.61,1.61,0,0,1,.17-.28l.18.28s0,.05,0,.07a7.77,7.77,0,0,1-1.24,5.24.43.43,0,0,0,0,.63,4.38,4.38,0,0,1,1,1.85,10.39,10.39,0,0,1,.26,3,1.23,1.23,0,0,1-.12.37c-.11-.08-.27-.14-.32-.25A4,4,0,0,0,33.89,56a9.9,9.9,0,0,0-1.58-.74A11.46,11.46,0,0,0,28,54.83c-.58,0-.58,0-.71.59a2.09,2.09,0,0,1-.08.34c-.29,1-.59,2-.9,3M6.66,54.25a.69.69,0,0,1,.19-.1A6.7,6.7,0,0,0,10.74,50a14.11,14.11,0,0,0,.89-4.49,30.43,30.43,0,0,0-.69-8.24,9.57,9.57,0,0,0-1.08-2.79,3.38,3.38,0,0,0-1.21-1.28,1.54,1.54,0,0,1-.2-.18,1.37,1.37,0,0,1,.19-.17,4,4,0,0,0,1.78-2.49,22.26,22.26,0,0,0,.84-5.13,32.38,32.38,0,0,0-.06-5.57,11.74,11.74,0,0,0-3.06-7.22,7.79,7.79,0,0,0-2-1.54l-.22-.15s.08-.08.1-.08a11.59,11.59,0,0,1,4.85.56A7.06,7.06,0,0,1,13,12.57c.28.26.32.24.6,0a7,7,0,0,1,3.25-1.78,11.25,11.25,0,0,1,3.22-.3,2.4,2.4,0,0,1,.41.09,1.39,1.39,0,0,1-.21.19A8.55,8.55,0,0,0,16.7,15a17,17,0,0,0-1.24,7.32,31.08,31.08,0,0,0,.8,6.51,7.77,7.77,0,0,0,1.27,2.88,8.66,8.66,0,0,0,1,1c.12.11.25.2,0,.34a4.54,4.54,0,0,0-1.71,2.33A12,12,0,0,0,16,39.16c-.1,1.63-.14,3.26-.13,4.89a6.77,6.77,0,0,0,1.69,4.67,7,7,0,0,0,4.21,2.22l.55.07a.84.84,0,0,0,.21,0,15.42,15.42,0,0,0-.22-1.56,16.51,16.51,0,0,0-3.05-6.27c-.13-.18-.23-.32-.06-.54a15.36,15.36,0,0,0,2.56-5.23,18,18,0,0,0-1.42-13,24.94,24.94,0,0,0-2.89-4.52,2.35,2.35,0,0,1-.27-.55l.09-.09a2,2,0,0,1,.54.12A16.83,16.83,0,0,1,23.87,24a.56.56,0,0,0,.74.2,18.11,18.11,0,0,1,4.76-1.16,19,19,0,0,1,4.2-.15,15.53,15.53,0,0,1,7.48,2.55,10.37,10.37,0,0,1,3.36,3.23,11.26,11.26,0,0,1,.67,1.4,7,7,0,0,0,1.58,2.42.9.9,0,0,1,.14.17c-.1.11-.19.23-.3.33a4.46,4.46,0,0,0-1.22,2,26.41,26.41,0,0,1-1,2.55,8.45,8.45,0,0,1-3.2,3.4l-.34.23.77.32a22.76,22.76,0,0,1,4.22,2.31,11.15,11.15,0,0,1,4.16,5.86c.07.23.15.45.21.68a3.16,3.16,0,0,0,1.28,1.93l.38.29-.37.23A3.43,3.43,0,0,0,50,54.86a12.12,12.12,0,0,1-2.48,4.62,15.35,15.35,0,0,1-4.6,3.42,20.41,20.41,0,0,1-6.36,2,17.68,17.68,0,0,1-5-.11,34.15,34.15,0,0,1-7.37-1.91,1,1,0,0,0-1.22.21,17.15,17.15,0,0,1-4.67,3.33s-.08.06-.12.06H17.8a1.5,1.5,0,0,1,.08-.32c.33-.48.68-1,1-1.43a20.91,20.91,0,0,0,3.3-7.44,12.08,12.08,0,0,0,.11-2c0-.07-.14-.19-.24-.21-1.12-.27-2.26-.47-3.37-.79a20.11,20.11,0,0,1-4.53-2.12.34.34,0,0,0-.49,0,8,8,0,0,1-5.27,2.11l-1.45,0-.28,0v-.08"/><rect class="cls-1" x="72.38" y="7.01" width="0.79" height="61.84"/><path d="M98.72,38.22H103V58.65h12.78v3.89H98.72Z"/><path d="M118.46,50.45v-.07a12.72,12.72,0,0,1,25.43-.07v.07a12.72,12.72,0,0,1-25.43.07Zm21,0v-.07a8.3,8.3,0,0,0-8.27-8.62c-4.83,0-8.2,3.82-8.2,8.55v.07A8.3,8.3,0,0,0,131.21,59C136,59,139.41,55.17,139.41,50.45Z"/><path d="M149.77,38.22h4l13,16.81V38.22H171V62.54h-3.58L154,45.23V62.54h-4.2Z"/><path d="M176.84,50.45v-.07A12.39,12.39,0,0,1,189.38,37.8a13.11,13.11,0,0,1,9.34,3.3L196,44.33a9.65,9.65,0,0,0-6.81-2.57c-4.48,0-7.88,3.89-7.88,8.55v.07c0,5,3.3,8.68,8.27,8.68a10,10,0,0,0,5.87-1.84V52.7h-6.22V49h10.35V59.17A15.47,15.47,0,0,1,189.45,63C181.84,63,176.84,57.53,176.84,50.45Z"/><path d="M217,38.22h10.91c2.78,0,5,.76,6.36,2.15a5.53,5.53,0,0,1,1.63,4v.07a5.8,5.8,0,0,1-3.47,5.42c2.85,1,4.83,2.61,4.83,5.91v.07c0,4.34-3.58,6.67-9,6.67H217ZM231.6,45.1c0-1.92-1.53-3.1-4.28-3.1h-6.15v6.47H227c2.75,0,4.59-1.08,4.59-3.3Zm-3.65,7h-6.78v6.67h7.09c2.89,0,4.69-1.15,4.69-3.34v-.06C233,53.3,231.32,52.08,228,52.08Z"/><path d="M242.75,38.22h18V42H247v6.32h12.19v3.86H247v6.49H261v3.83H242.75Z"/><path d="M275.31,38h4L290,62.54h-4.51L283,56.66h-11.5L269,62.54h-4.38Zm6.12,14.84-4.21-9.73-4.17,9.73Z"/><path d="M292.3,50.45v-.07A12.3,12.3,0,0,1,304.81,37.8a12.69,12.69,0,0,1,9.56,3.79l-2.75,3.16a9.7,9.7,0,0,0-6.84-3c-4.59,0-8,3.79-8,8.55v.07c0,4.76,3.37,8.61,8,8.61,3,0,4.9-1.18,7-3.12l2.75,2.78a12.56,12.56,0,0,1-9.87,4.3A12.21,12.21,0,0,1,292.3,50.45Z"/><path d="M319.76,38.22H324V48.33h11.6V38.22h4.28V62.54h-4.28V52.29H324V62.54h-4.27Z"/><path class="cls-1" d="M97.22,20.38v0A5.79,5.79,0,0,1,103,14.4a6,6,0,0,1,4.49,1.82l-.89,1A5,5,0,0,0,103,15.6a4.5,4.5,0,0,0-4.45,4.71v0A4.54,4.54,0,0,0,103,25.09a5,5,0,0,0,3.71-1.66l.85.84a6,6,0,0,1-4.6,2A5.73,5.73,0,0,1,97.22,20.38Z"/><path class="cls-1" d="M116.14,14.51h1.22l5.24,11.58h-1.4l-1.35-3H113.6l-1.37,3H110.9Zm3.2,7.38L116.73,16l-2.63,5.86Z"/><path class="cls-1" d="M126.83,14.6h1.3V24.89h6.47v1.2h-7.77Z"/><path class="cls-1" d="M139,14.6h1.3V26.09H139Z"/><path class="cls-1" d="M145.66,14.6h8.26v1.2h-7v4.1h6.23v1.18H147v5h-1.29Z"/><path class="cls-1" d="M157.65,20.38v0a5.86,5.86,0,1,1,11.72,0v0a5.83,5.83,0,0,1-5.88,5.95A5.76,5.76,0,0,1,157.65,20.38Zm10.38,0v0a4.57,4.57,0,0,0-4.54-4.74,4.52,4.52,0,0,0-4.5,4.71v0a4.57,4.57,0,0,0,4.54,4.75A4.52,4.52,0,0,0,168,20.38Z"/><path class="cls-1" d="M174.09,14.6H179a4.51,4.51,0,0,1,3.27,1.15,3.15,3.15,0,0,1,.89,2.26v0a3.38,3.38,0,0,1-3.12,3.36l3.53,4.69H182l-3.33-4.47h-3.28v4.47h-1.3Zm4.83,5.86c1.72,0,3-.89,3-2.37v0c0-1.41-1.08-2.26-2.94-2.26h-3.54v4.66Z"/><path class="cls-1" d="M187.94,14.6h1.21l7.24,9.21V14.6h1.27V26.09h-1l-7.42-9.42v9.42h-1.26Z"/><path class="cls-1" d="M203,14.6h1.3V26.09H203Z"/><path class="cls-1" d="M213.87,14.51h1.21l5.24,11.58h-1.39l-1.35-3h-6.26l-1.36,3h-1.33Zm3.2,7.38L214.46,16l-2.63,5.86Z"/><path class="cls-1" d="M230.69,24.42l.8-1a5.46,5.46,0,0,0,3.94,1.63c1.55,0,2.57-.82,2.57-1.95v0c0-1.06-.58-1.67-3-2.18-2.65-.58-3.86-1.43-3.86-3.32v0c0-1.81,1.59-3.14,3.78-3.14a6,6,0,0,1,4,1.41l-.76,1a5.05,5.05,0,0,0-3.32-1.25c-1.49,0-2.44.82-2.44,1.85v0c0,1.08.59,1.69,3.12,2.23s3.74,1.49,3.74,3.25v0c0,2-1.64,3.26-3.92,3.26A6.73,6.73,0,0,1,230.69,24.42Z"/><path class="cls-1" d="M246.67,15.8h-3.88V14.6h9.05v1.2H248V26.09h-1.3Z"/><path class="cls-1" d="M258.94,14.51h1.21l5.24,11.58H264l-1.35-3h-6.26l-1.36,3H253.7Zm3.2,7.38L259.53,16l-2.63,5.86Z"/><path class="cls-1" d="M271.13,15.8h-3.88V14.6h9.05v1.2h-3.88V26.09h-1.29Z"/><path class="cls-1" d="M280.64,14.6H289v1.18h-7V19.7h6.28v1.19h-6.28v4H289v1.18h-8.39Z"/><path class="cls-1" d="M300.31,21.28V14.6h1.3v6.6c0,2.48,1.31,3.87,3.52,3.87s3.46-1.28,3.46-3.79V14.6h1.3v6.58c0,3.35-1.92,5.09-4.8,5.09S300.31,24.53,300.31,21.28Z"/><path class="cls-1" d="M314.93,14.6h1.22l7.24,9.21V14.6h1.26V26.09h-1l-7.42-9.42v9.42h-1.27Z"/><path class="cls-1" d="M330,14.6h1.29V26.09H330Z"/><path class="cls-1" d="M335.63,14.6h1.44l4.09,9.9,4.11-9.9h1.39l-4.94,11.57h-1.15Z"/><path class="cls-1" d="M350.9,14.6h8.31v1.18h-7V19.7h6.27v1.19H352.2v4h7.09v1.18H350.9Z"/><path class="cls-1" d="M363.88,14.6h4.94a4.51,4.51,0,0,1,3.27,1.15A3.15,3.15,0,0,1,373,18v0a3.38,3.38,0,0,1-3.12,3.36l3.53,4.69h-1.6l-3.33-4.47h-3.28v4.47h-1.3Zm4.83,5.86c1.72,0,3-.89,3-2.37v0c0-1.41-1.08-2.26-2.94-2.26h-3.54v4.66Z"/><path class="cls-1" d="M377,24.42l.8-1a5.46,5.46,0,0,0,3.94,1.63c1.55,0,2.57-.82,2.57-1.95v0c0-1.06-.58-1.67-3-2.18-2.65-.58-3.86-1.43-3.86-3.32v0c0-1.81,1.59-3.14,3.78-3.14a6,6,0,0,1,4,1.41l-.76,1a5.05,5.05,0,0,0-3.32-1.25c-1.49,0-2.44.82-2.44,1.85v0c0,1.08.59,1.69,3.12,2.23s3.74,1.49,3.74,3.25v0c0,2-1.64,3.26-3.92,3.26A6.73,6.73,0,0,1,377,24.42Z"/><path class="cls-1" d="M390.31,14.6h1.29V26.09h-1.29Z"/><path class="cls-1" d="M399.93,15.8h-3.88V14.6h9.05v1.2h-3.87V26.09h-1.3Z"/><path class="cls-1" d="M413,21.54l-4.78-6.94h1.58l3.87,5.74,3.91-5.74h1.51l-4.78,6.93v4.56H413Z"/></svg>